<svg width="439" height="439" viewBox="0 0 439 439" fill="none" xmlns="http://www.w3.org/2000/svg">
<g clip-path="url(#clip0)">
<path d="M414.41 60.676C398.326 44.593 378.964 36.551 356.308 36.551H264.951C262.473 36.551 260.522 37.165 259.098 38.406C257.667 39.643 256.716 41.499 256.244 43.974C255.765 46.448 255.484 48.683 255.391 50.681C255.295 52.678 255.34 55.202 255.535 58.246C255.721 61.292 255.816 63.195 255.816 63.959C256.387 65.483 256.583 66.769 256.387 67.814C256.196 68.857 256.863 69.717 258.385 70.382C259.905 71.048 260.664 71.573 260.664 71.951C260.664 72.329 261.76 72.613 263.949 72.806C266.139 72.998 267.238 73.09 267.238 73.09H270.951H274.093H356.321C368.881 73.09 379.633 77.561 388.579 86.512C397.531 95.457 402.001 106.208 402.001 118.773V319.77C402.001 332.333 397.531 343.082 388.579 352.028C379.634 360.976 368.881 365.449 356.321 365.449H264.964C262.486 365.449 260.528 366.069 259.111 367.304C257.681 368.546 256.729 370.398 256.254 372.868C255.778 375.346 255.491 377.584 255.399 379.582C255.307 381.577 255.348 384.1 255.543 387.145C255.738 390.191 255.831 392.093 255.831 392.853C255.831 395.331 256.727 397.466 258.538 399.28C260.348 401.087 262.487 401.99 264.965 401.99H356.322C378.97 401.99 398.34 393.948 414.417 377.857C430.501 361.78 438.543 342.411 438.543 319.762V118.769C438.533 96.118 430.491 76.754 414.41 60.676Z" fill="url(#paint0_linear)"/>
<path d="M338.047 219.27C338.047 214.322 336.234 210.037 332.62 206.42L177.302 51.101C173.686 47.489 169.407 45.677 164.455 45.677C159.503 45.677 155.222 47.489 151.605 51.101C147.99 54.718 146.181 59.005 146.181 63.951V146.177H18.274C13.322 146.177 9.039 147.989 5.423 151.601C1.807 155.219 0 159.503 0 164.452V274.087C0 279.036 1.807 283.32 5.424 286.935C9.043 290.545 13.326 292.362 18.275 292.362H146.181V374.587C146.181 379.532 147.99 383.82 151.605 387.434C155.226 391.051 159.507 392.862 164.455 392.862C169.404 392.862 173.686 391.051 177.302 387.434L332.62 232.122C336.234 228.501 338.047 224.216 338.047 219.27Z" fill="url(#paint1_linear)"/>
</g>
<defs>
<linearGradient id="paint0_linear" x1="255.342" y1="402.135" x2="497.86" y2="402.135" gradientUnits="userSpaceOnUse">
<stop stop-color="#00473B"/>
<stop offset="0.0001" stop-color="#018F74"/>
<stop offset="1" stop-color="#A2EAE3"/>
</linearGradient>
<linearGradient id="paint1_linear" x1="1.61864e-08" y1="393" x2="447.5" y2="393" gradientUnits="userSpaceOnUse">
<stop stop-color="#00473B"/>
<stop offset="0.473958" stop-color="#018F74"/>
<stop offset="1" stop-color="#A2EAE3"/>
</linearGradient>
<clipPath id="clip0">
<rect width="438.542" height="438.542" fill="white"/>
</clipPath>
</defs>
</svg>
