<svg width="512" height="512" viewBox="0 0 512 512" fill="none" xmlns="http://www.w3.org/2000/svg">
<path d="M512 256C512 228.369 499.496 202.465 477.653 180.163C462.454 164.644 449.799 146.868 440.14 127.412C409.251 65.195 356.586 24.216 296.804 24.216C254.321 24.216 215.435 44.914 185.401 79.219C165.521 101.926 140.42 119.344 112.413 130.59C44.575 157.832 0 203.833 0 256C0 308.167 44.575 354.168 112.414 381.41C140.421 392.656 165.521 410.074 185.402 432.781C215.436 467.086 254.322 487.784 296.804 487.784C356.586 487.784 409.251 446.805 440.14 384.588C449.799 365.132 462.454 347.356 477.653 331.837C499.496 309.535 512 283.631 512 256Z" fill="url(#paint0_linear)"/>
<path d="M210.419 436.23H114.844C105.114 436.23 97.227 428.342 97.227 418.613V285.958C97.227 276.228 105.114 268.341 114.844 268.341H210.419C220.149 268.341 228.036 276.229 228.036 285.958V418.612C228.037 428.342 220.149 436.23 210.419 436.23V436.23Z" fill="#A2EAE3"/>
<path d="M181.424 268.341V273.594C181.424 283.972 173.011 292.386 162.632 292.386C152.254 292.386 143.84 283.973 143.84 273.594V268.341H181.424Z" fill="#295551"/>
<path d="M178.945 352.598H146.32C143.559 352.598 141.32 350.359 141.32 347.598V314.973C141.32 312.212 143.559 309.973 146.32 309.973H178.945C181.706 309.973 183.945 312.212 183.945 314.973V347.598C183.945 350.359 181.706 352.598 178.945 352.598Z" fill="#4CE6CB"/>
<path d="M178.945 406.598H146.32C143.559 406.598 141.32 404.359 141.32 401.598V368.973C141.32 366.212 143.559 363.973 146.32 363.973H178.945C181.706 363.973 183.945 366.212 183.945 368.973V401.598C183.945 404.359 181.706 406.598 178.945 406.598Z" fill="#01C1AF"/>
<path d="M315.419 205.076V102.565C315.419 88.092 327.194 76.317 341.666 76.317C356.14 76.317 367.914 88.092 367.914 102.565V205.076H395.461V102.565C395.461 72.902 371.329 48.77 341.666 48.77C312.004 48.77 287.872 72.902 287.872 102.565V205.076H315.419Z" fill="#115749"/>
<path d="M404.773 436.23H279.299C273.776 436.23 269.299 431.753 269.299 426.23V200.963C269.299 195.44 273.776 190.963 279.299 190.963H404.773C410.296 190.963 414.773 195.44 414.773 200.963V426.23C414.773 431.752 410.296 436.23 404.773 436.23Z" fill="#00473B"/>
<path d="M184.154 230.055C185.844 230.055 187.493 229.198 188.434 227.647C189.866 225.286 189.113 222.211 186.751 220.779C179.485 216.371 171.144 214.042 162.631 214.042C154.117 214.042 145.776 216.372 138.511 220.779C136.151 222.211 135.398 225.286 136.83 227.647C138.263 230.007 141.337 230.762 143.698 229.329C149.399 225.87 155.946 224.042 162.631 224.042C169.316 224.042 175.862 225.87 181.566 229.329C182.377 229.82 183.271 230.055 184.154 230.055V230.055Z" fill="#295551"/>
<path d="M162.632 231.798C158.486 231.798 154.422 232.933 150.881 235.081C148.52 236.513 147.767 239.588 149.198 241.949C150.63 244.309 153.704 245.064 156.066 243.632C160.022 241.233 165.244 241.234 169.196 243.631C170.007 244.123 170.901 244.357 171.785 244.357C173.474 244.357 175.124 243.5 176.064 241.95C177.497 239.589 176.744 236.514 174.383 235.081C170.844 232.934 166.779 231.798 162.632 231.798V231.798Z" fill="#295551"/>
<path d="M129.667 215.005C130.55 215.005 131.444 214.771 132.255 214.279C141.405 208.73 151.909 205.796 162.632 205.796C173.356 205.796 183.86 208.73 193.009 214.279C195.37 215.712 198.445 214.959 199.877 212.597C201.309 210.236 200.556 207.161 198.194 205.729C187.482 199.23 175.184 195.796 162.632 195.796C150.08 195.796 137.782 199.23 127.069 205.729C124.708 207.161 123.955 210.236 125.386 212.597C126.327 214.148 127.977 215.006 129.667 215.005Z" fill="#295551"/>
<path d="M338.629 236.677V388.987C338.629 391.747 336.389 393.987 333.629 393.987H306.969C304.209 393.987 301.969 391.747 301.969 388.987V236.677C301.969 233.917 304.209 231.677 306.969 231.677H333.629C336.389 231.677 338.629 233.917 338.629 236.677V236.677Z" fill="#C9EEE5"/>
<path d="M338.629 254.607V275.197L301.969 311.857V291.267L338.629 254.607Z" fill="#47E8D9"/>
<path d="M338.629 292.727V339.467L301.969 376.127V329.387L338.629 292.727Z" fill="#47E8D9"/>
<path d="M372.801 390.974C376.829 389.449 378.858 384.947 377.333 380.919C375.808 376.89 371.306 374.861 367.278 376.386C363.249 377.912 361.22 382.414 362.745 386.442C364.27 390.47 368.772 392.499 372.801 390.974Z" fill="#42EDDC"/>
<path d="M370.099 366.226C374.407 366.226 377.9 362.733 377.9 358.425C377.9 354.117 374.407 350.624 370.099 350.624C365.791 350.624 362.298 354.117 362.298 358.425C362.298 362.733 365.791 366.226 370.099 366.226Z" fill="#42EDDC"/>
<path d="M404.773 436.23H279.299C273.776 436.23 269.299 431.753 269.299 426.23V200.963C269.299 195.44 273.776 190.963 279.299 190.963H404.773C410.296 190.963 414.773 195.44 414.773 200.963V426.23C414.773 431.752 410.296 436.23 404.773 436.23Z" fill="url(#paint1_linear)"/>
<defs>
<linearGradient id="paint0_linear" x1="-107" y1="256" x2="724.007" y2="256" gradientUnits="userSpaceOnUse">
<stop offset="0.007" stop-color="#00473B"/>
<stop offset="0.5" stop-color="#018F74"/>
<stop offset="0.992" stop-color="#A2EAE3"/>
</linearGradient>
<linearGradient id="paint1_linear" x1="342.036" y1="436.23" x2="342.036" y2="190.963" gradientUnits="userSpaceOnUse">
<stop stop-color="#479F76" stop-opacity="0.4"/>
<stop offset="1" stop-color="#A3CFBB" stop-opacity="0"/>
</linearGradient>
</defs>
</svg>
